<svg width="237" height="46" viewBox="0 0 237 46" fill="none" xmlns="http://www.w3.org/2000/svg">
<path d="M7.64198 27.7026V14.2386C7.64198 10.4466 9.52598 8.55062 13.294 8.55062H23.302L25.138 9.99062V11.8626H13.33C11.962 11.8626 11.278 12.5346 11.278 13.8786V28.0626C11.278 29.4066 11.962 30.0786 13.33 30.0786H25.138V31.9506L23.302 33.3906H13.294C9.52598 33.3906 7.64198 31.4946 7.64198 27.7026ZM29.4673 27.8466V20.1066C29.4673 16.4346 31.3033 14.5986 34.9753 14.5986H40.0153C43.6873 14.5986 45.5233 16.4346 45.5233 20.1066V27.8466C45.5233 31.5426 43.6873 33.3906 40.0153 33.3906H34.9753C31.3033 33.3906 29.4673 31.5426 29.4673 27.8466ZM32.9593 28.2066C32.9593 29.6226 33.6673 30.3306 35.0833 30.3306H39.9433C41.3353 30.3306 42.0313 29.6226 42.0313 28.2066V19.7466C42.0313 18.3546 41.3353 17.6586 39.9433 17.6586H35.0833C33.6673 17.6586 32.9593 18.3546 32.9593 19.7466V28.2066ZM50.705 27.8466V14.5986H54.197V28.2066C54.197 29.6226 54.905 30.3306 56.321 30.3306H62.909V14.5986H66.401V33.3906H56.213C52.541 33.3906 50.705 31.5426 50.705 27.8466ZM72.0131 33.3906V14.5986H82.2011C85.8731 14.5986 87.7091 16.4346 87.7091 20.1066V33.3906H84.2171V19.7466C84.2171 18.3546 83.5211 17.6586 82.1291 17.6586H75.5051V33.3906H72.0131ZM93.0331 27.8466V8.55062H96.5251V14.5986H103.185V17.6586H96.5251V28.2066C96.5251 29.6226 97.2331 30.3306 98.6491 30.3306H103.545V32.1666L101.889 33.3906H98.5411C94.8691 33.3906 93.0331 31.5426 93.0331 27.8466ZM107.374 27.8466V20.1066C107.374 16.4346 109.21 14.5986 112.882 14.5986H117.562C121.234 14.5986 123.07 16.4346 123.07 20.1066V25.2906H110.866V28.2066C110.866 29.6226 111.574 30.3306 112.99 30.3306H122.35V32.1666L120.73 33.3906H112.882C109.21 33.3906 107.374 31.5426 107.374 27.8466ZM110.866 22.5546H119.578V19.7466C119.578 18.3546 118.882 17.6586 117.49 17.6586H112.99C111.574 17.6586 110.866 18.3546 110.866 19.7466V22.5546ZM128.26 33.3906V16.8306C129.1 15.3426 130.696 14.5986 133.048 14.5986H136.756L138.412 15.8226V17.6586H133.732C132.796 17.6586 132.136 17.8986 131.752 18.3786V33.3906H128.26ZM142.15 33.3906V12.2946C142.15 8.59862 143.986 6.75062 147.658 6.75062H151.006L152.662 7.97462V9.81062H147.766C146.35 9.81062 145.642 10.5186 145.642 11.9346V14.5986H152.302V17.6586H145.642V33.3906H142.15ZM155.889 27.8466V20.1066C155.889 16.4346 157.725 14.5986 161.397 14.5986H166.077C169.749 14.5986 171.585 16.4346 171.585 20.1066V25.2906H159.381V28.2066C159.381 29.6226 160.089 30.3306 161.505 30.3306H170.865V32.1666L169.245 33.3906H161.397C157.725 33.3906 155.889 31.5426 155.889 27.8466ZM159.381 22.5546H168.093V19.7466C168.093 18.3546 167.397 17.6586 166.005 17.6586H161.505C160.089 17.6586 159.381 18.3546 159.381 19.7466V22.5546ZM176.775 11.2146V7.39862H180.519V11.2146H176.775ZM176.919 33.3906V14.5986H180.411V33.3906H176.919ZM185.881 27.8466V8.55062H189.373V14.5986H196.033V17.6586H189.373V28.2066C189.373 29.6226 190.081 30.3306 191.497 30.3306H196.393V32.1666L194.737 33.3906H191.389C187.717 33.3906 185.881 31.5426 185.881 27.8466Z" fill="white"/>
<path d="M198.385 32.6346L206.341 8.55062H212.137L220.057 32.6346L219.589 33.3906H216.529L214.657 27.4866H203.821L201.913 33.3906H198.889L198.385 32.6346ZM204.865 24.1746H213.613L209.617 11.8626H208.861L204.865 24.1746ZM223.897 33.3906V8.55062H227.533V33.3906H223.897Z" fill="#F2B01B"/>
<line x1="226.527" y1="38.6641" x2="236.527" y2="38.6641" stroke="black" stroke-width="2.5"/>
<line x1="235.277" y1="39.9141" x2="235.277" y2="29.9141" stroke="black" stroke-width="2.5"/>
<line x1="221.645" y1="31.8906" x2="229.945" y2="31.8906" stroke="#F2B01B" stroke-width="3"/>
<line x1="221.645" y1="9.86426" x2="229.945" y2="9.86426" stroke="#F2B01B" stroke-width="3"/>
<path d="M0.5 2.63867H10.5" stroke="black" stroke-width="2.5"/>
<line x1="1.74609" y1="11.5254" x2="1.74609" y2="1.52539" stroke="black" stroke-width="2.5"/>
</svg>
